<svg width="289" height="289" viewBox="0 0 289 289" fill="none" xmlns="http://www.w3.org/2000/svg">
<circle cx="144.5" cy="144.5" r="144.5" fill="#EDEEED"/>
<rect x="213" y="169" width="24" height="66" rx="4" fill="#202730"/>
<rect x="243" y="169" width="24" height="24" rx="4" fill="#202730"/>
<rect x="10" y="158" width="24" height="24" rx="4" fill="#202730"/>
<rect x="69" y="240" width="24" height="24" rx="4" fill="#202730"/>
<path fill-rule="evenodd" clip-rule="evenodd" d="M82 36C79.7909 36 78 37.7909 78 40V109C78 111.209 79.7909 113 82 113H98C100.209 113 102 111.209 102 109V61H120C122.209 61 124 59.2091 124 57V40C124 37.7909 122.209 36 120 36H98H96H82Z" fill="#202730"/>
<rect x="133" y="12" width="24" height="191" rx="4" fill="#202730"/>
<path fill-rule="evenodd" clip-rule="evenodd" d="M73 158C70.7909 158 69 159.791 69 162V173H43C40.7909 173 39 174.791 39 177V193C39 195.209 40.7909 197 43 197H69V231C69 233.209 70.7909 235 73 235H89C91.2091 235 93 233.209 93 231V193V177V162C93 159.791 91.2091 158 89 158H73Z" fill="#202730"/>
<rect x="157" y="211" width="24" height="53" rx="4" transform="rotate(90 157 211)" fill="#202730"/>
<path fill-rule="evenodd" clip-rule="evenodd" d="M167 140C164.791 140 163 141.791 163 144V231C163 233.209 164.791 235 167 235H183C185.209 235 187 233.209 187 231V164L202 164C204.209 164 206 162.209 206 160V144C206 141.791 204.209 140 202 140H183H177H167Z" fill="#202730"/>
<path fill-rule="evenodd" clip-rule="evenodd" d="M174 69H201V76C201 78.2091 202.791 80 205 80H221C223.209 80 225 78.2091 225 76V49C225 46.7909 223.209 45 221 45H213H205H174C171.791 45 170 46.7909 170 49V65C170 67.2091 171.791 69 174 69Z" fill="#202730"/>
<rect x="66" y="113" width="24" height="37" rx="4" transform="rotate(-180 66 113)" fill="#202730"/>
<path fill-rule="evenodd" clip-rule="evenodd" d="M26 150H104V199C104 201.209 105.791 203 108 203H124C126.209 203 128 201.209 128 199V130C128 127.791 126.209 126 124 126H123H108H26C23.7909 126 22 127.791 22 130V146C22 148.209 23.7909 150 26 150Z" fill="#202730"/>
<rect x="206" y="240" width="24" height="102" rx="4" transform="rotate(90 206 240)" fill="#202730"/>
<path fill-rule="evenodd" clip-rule="evenodd" d="M217 126C214.791 126 213 127.791 213 130V146V160C213 162.209 214.791 164 217 164H233C235.209 164 237 162.209 237 160V150H273C275.209 150 277 148.209 277 146V130C277 127.791 275.209 126 273 126H233H217Z" fill="#202730"/>
<rect x="262" y="95" width="24" height="92" rx="4" transform="rotate(90 262 95)" fill="#202730"/>
</svg>
