<svg width="250" height="250" viewBox="0 0 250 250" fill="none" xmlns="http://www.w3.org/2000/svg">
<circle cx="125" cy="125" r="125" fill="#202730"/>
<path fill-rule="evenodd" clip-rule="evenodd" d="M77.0889 146.297C82.9885 140.398 90.9901 137.083 99.3333 137.083H149.667C158.01 137.083 166.011 140.398 171.911 146.297C177.811 152.197 181.125 160.198 181.125 168.542V181.125C181.125 184.6 178.308 187.417 174.833 187.417C171.359 187.417 168.542 184.6 168.542 181.125V168.542C168.542 163.536 166.553 158.735 163.013 155.195C159.474 151.655 154.673 149.667 149.667 149.667H99.3333C94.3274 149.667 89.5264 151.655 85.9867 155.195C82.4469 158.735 80.4583 163.536 80.4583 168.542V181.125C80.4583 184.6 77.6415 187.417 74.1667 187.417C70.6919 187.417 67.875 184.6 67.875 181.125V168.542C67.875 160.198 71.1893 152.197 77.0889 146.297Z" fill="#EDEEED"/>
<path fill-rule="evenodd" clip-rule="evenodd" d="M124.5 74.1667C114.076 74.1667 105.625 82.6173 105.625 93.0417C105.625 103.466 114.076 111.917 124.5 111.917C134.924 111.917 143.375 103.466 143.375 93.0417C143.375 82.6173 134.924 74.1667 124.5 74.1667ZM93.0417 93.0417C93.0417 75.6677 107.126 61.5834 124.5 61.5834C141.874 61.5834 155.958 75.6677 155.958 93.0417C155.958 110.416 141.874 124.5 124.5 124.5C107.126 124.5 93.0417 110.416 93.0417 93.0417Z" fill="#EDEEED"/>
</svg>
