<svg width="38" height="38" viewBox="0 0 38 38" fill="none" xmlns="http://www.w3.org/2000/svg">
<path fill-rule="evenodd" clip-rule="evenodd" d="M19 4.74992C11.13 4.74992 4.75001 11.1299 4.75001 18.9999C4.75001 26.87 11.13 33.2499 19 33.2499C26.8701 33.2499 33.25 26.87 33.25 18.9999C33.25 11.1299 26.8701 4.74992 19 4.74992ZM1.58334 18.9999C1.58334 9.38096 9.38105 1.58325 19 1.58325C28.619 1.58325 36.4167 9.38096 36.4167 18.9999C36.4167 28.6189 28.619 36.4166 19 36.4166C9.38105 36.4166 1.58334 28.6189 1.58334 18.9999Z" fill="#B20A0A"/>
<path d="M20.1196 11.547C19.5013 10.9287 18.4988 10.9287 17.8804 11.547C17.2621 12.1653 17.2621 13.1678 17.8804 13.7862L21.5108 17.4166H12.6667C11.7922 17.4166 11.0833 18.1255 11.0833 18.9999C11.0833 19.8744 11.7922 20.5833 12.6667 20.5833H21.5108L17.8804 24.2137C17.2621 24.832 17.2621 25.8345 17.8804 26.4528C18.4988 27.0712 19.5013 27.0712 20.1196 26.4528L26.4529 20.1195C27.0713 19.5012 27.0713 18.4987 26.4529 17.8803L20.1196 11.547Z" fill="#B20A0A"/>
</svg>
