<svg width="25" height="17" viewBox="0 0 25 17" fill="none" xmlns="http://www.w3.org/2000/svg">
<path d="M23.5345 2.44315H8.7931C7.91379 2.44315 7.32759 1.95551 7.32759 1.22405C7.32759 0.492582 7.91379 0.00493946 8.7931 0.00493946H23.5345C24.4138 0.00493946 25 0.492582 25 1.22405C25 1.95551 24.4138 2.44315 23.5345 2.44315Z" fill="#202730" fill-opacity="1"/>
<path d="M23.5345 9.93821H8.7931C7.91379 9.93821 7.32759 9.45057 7.32759 8.71911C7.32759 7.98764 7.91379 7.5 8.7931 7.5H23.5345C24.4138 7.5 25 7.98764 25 8.71911C25 9.45057 24.4138 9.93821 23.5345 9.93821Z" fill="#202730" fill-opacity="1"/>
<path d="M23.5345 17H8.7931C7.91379 17 7.32759 16.5124 7.32759 15.7809C7.32759 15.0494 7.91379 14.5618 8.7931 14.5618H23.5345C24.4138 14.5618 25 15.0494 25 15.7809C25 16.5124 24.4138 17 23.5345 17Z" fill="#202730" fill-opacity="1"/>
<path d="M1.46552 2.44315C1.31897 2.44315 1.31897 2.44315 1.17241 2.44315C1.02586 2.44315 1.02586 2.44315 0.87931 2.32124C0.732759 2.32124 0.732759 2.19933 0.586207 2.19933C0.439655 2.19933 0.439655 2.07742 0.439655 2.07742C0.293103 1.95551 0.146552 1.8336 0.146552 1.71169C-1.49012e-07 1.58978 0 1.34596 0 1.22405C0 1.10214 -1.49012e-07 0.858314 0.146552 0.736404C0.293103 0.614493 0.293103 0.492583 0.439655 0.370672C0.87931 0.00493988 1.46552 -0.116971 2.05172 0.12685C2.19828 0.248761 2.34483 0.248761 2.49138 0.370672C2.78448 0.614493 2.93103 0.858314 2.93103 1.22405C2.93103 1.58978 2.78448 1.8336 2.49138 2.07742C2.19828 2.32124 1.90517 2.44315 1.46552 2.44315Z" fill="#202730" fill-opacity="1"/>
<path d="M1.46552 9.93822C1.02586 9.93822 0.732759 9.8163 0.439655 9.57248C0.146552 9.32866 0 9.08484 0 8.71911C0 8.5972 0 8.5972 0 8.47529C0 8.35338 -1.49012e-07 8.35338 0.146552 8.23147C0.146552 8.10956 0.293104 8.10955 0.293104 7.98764C0.293104 7.86573 0.439655 7.86573 0.439655 7.86573C0.586207 7.74382 0.732758 7.62191 0.87931 7.62191C1.46552 7.37809 2.05172 7.5 2.49138 7.86573L2.63793 7.98764C2.63793 8.10955 2.78448 8.10956 2.78448 8.23147C2.78448 8.35338 2.78448 8.35338 2.93103 8.47529C2.93103 8.5972 2.93103 8.5972 2.93103 8.71911C2.93103 9.08484 2.78448 9.32866 2.49138 9.57248C2.19828 9.8163 1.90517 9.93822 1.46552 9.93822Z" fill="#202730" fill-opacity="1"/>
<path d="M1.46552 17C1.02586 17 0.732759 16.8781 0.439655 16.6343C0.146552 16.3904 0 16.1466 0 15.7809C0 15.659 -1.49012e-07 15.4152 0.146552 15.2932C0.293103 15.1713 0.293103 15.0494 0.439655 14.9275C1.02586 14.4399 1.90517 14.4399 2.49138 14.9275C2.78448 15.1713 2.93103 15.4152 2.93103 15.7809C2.93103 16.1466 2.78448 16.3904 2.49138 16.6343C2.19828 16.8781 1.90517 17 1.46552 17Z" fill="#202730" fill-opacity="1"/>
</svg>
