<svg width="24" height="24" viewBox="0 0 24 24" fill="none" xmlns="http://www.w3.org/2000/svg">
<path fill-rule="evenodd" clip-rule="evenodd" d="M20 11.5C20 6.06978 14.0662 2.30984 9.15085 4.79259L9.14706 4.7945L9.14706 4.7945C5.52859 6.60295 3.95644 11.2139 5.7926 14.8491C5.91281 15.0871 5.933 15.3633 5.84868 15.6162L4.58114 19.4189L8.38377 18.1513C8.63672 18.067 8.91286 18.0872 9.15085 18.2074C14.0074 20.6605 20.0139 16.841 20 11.5026L20 11.5ZM22 11.4989C21.9992 4.61378 14.5263 -0.161483 8.25104 3.00644C3.7843 5.24014 1.77605 10.7956 3.82398 15.3658L2.05132 20.6838C1.93154 21.0431 2.02506 21.4393 2.29289 21.7071C2.56073 21.9749 2.95689 22.0685 3.31623 21.9487L8.63397 20.1761C14.7713 22.9323 22.0163 18.1596 22 11.4989Z" fill="#202730"/>
</svg>
