<svg width="28" height="28" viewBox="0 0 28 28" fill="none" xmlns="http://www.w3.org/2000/svg">
<path fill-rule="evenodd" clip-rule="evenodd" d="M1.4 16.8C2.1732 16.8 2.8 17.4268 2.8 18.2V23.8C2.8 24.1713 2.9475 24.5274 3.21005 24.79C3.4726 25.0525 3.8287 25.2 4.2 25.2H23.8C24.1713 25.2 24.5274 25.0525 24.7899 24.79C25.0525 24.5274 25.2 24.1713 25.2 23.8V18.2C25.2 17.4268 25.8268 16.8 26.6 16.8C27.3732 16.8 28 17.4268 28 18.2V23.8C28 24.9139 27.5575 25.9822 26.7698 26.7698C25.9822 27.5575 24.9139 28 23.8 28H4.2C3.08609 28 2.0178 27.5575 1.23015 26.7698C0.442499 25.9822 0 24.9139 0 23.8V18.2C0 17.4268 0.626801 16.8 1.4 16.8Z" fill="#EFEFEF"/>
<path fill-rule="evenodd" clip-rule="evenodd" d="M13.0101 0.410051C13.5568 -0.136684 14.4432 -0.136684 14.9899 0.410051L21.9899 7.41005C22.5367 7.95678 22.5367 8.84322 21.9899 9.38995C21.4432 9.93668 20.5568 9.93668 20.0101 9.38995L14 3.3799L7.98995 9.38995C7.44322 9.93668 6.55678 9.93668 6.01005 9.38995C5.46332 8.84322 5.46332 7.95678 6.01005 7.41005L13.0101 0.410051Z" fill="#EFEFEF"/>
<path fill-rule="evenodd" clip-rule="evenodd" d="M14 2.08616e-08C14.7732 2.08616e-08 15.4 0.626801 15.4 1.4V18.2C15.4 18.9732 14.7732 19.6 14 19.6C13.2268 19.6 12.6 18.9732 12.6 18.2V1.4C12.6 0.626801 13.2268 2.08616e-08 14 2.08616e-08Z" fill="#EFEFEF"/>
</svg>
