<svg width="24" height="24" viewBox="0 0 24 24" fill="none" xmlns="http://www.w3.org/2000/svg">
<g clip-path="url(#clip0)">
<path d="M8.30001 21.9C5.70001 21.9 3.00001 21.2 0.600007 19.8C0.200007 19.6 7.32392e-06 19.1 0.100007 18.7C0.200007 18.3 0.600007 18 1.00001 18C2.70001 18.1 4.40001 17.7 5.90001 17C2.20001 14.7 1.20001 11.5 1.10001 9.00001C1.00001 6.10001 2.00001 3.70001 2.10001 3.60001C2.20001 3.30001 2.50001 3.00001 2.90001 3.00001C3.30001 3.00001 3.60001 3.10001 3.80001 3.40001C5.50001 5.80001 8.10001 7.30001 11 7.50001C11 5.90001 11.7 4.40001 12.9 3.30001C15 1.50001 18.1 1.50001 20.2 3.30001C21 3.00001 21.8 2.60001 22.5 2.10001C22.8 1.90001 23.3 1.90001 23.6 2.10001C23.9 2.30001 24.1 2.80001 24 3.20001C23.7 4.60001 23 5.90001 22 7.00001C22 7.20001 22 7.30001 22 7.50001C22 13 19.6 17.6 15.3 20C13.2 21.3 10.8 21.9 8.30001 21.9ZM5.00001 19.5C8.30001 20.3 11.6 19.9 14.4 18.3C18 16.2 20.1 12.2 20.1 7.50001C20.1 7.30001 20.1 7.10001 20 6.90001C19.9 6.60001 20 6.20001 20.3 6.00001C20.5 5.80001 20.7 5.50001 20.9 5.30001C20.7 5.40001 20.4 5.50001 20.2 5.50001C19.8 5.60001 19.4 5.50001 19.2 5.20001C17.9 3.80001 15.7 3.60001 14.3 4.90001C13.4 5.50001 13 6.50001 13 7.50001V8.50001C13 9.00001 12.6 9.50001 12 9.50001C8.70001 9.60001 5.60001 8.30001 3.40001 6.00001C2.80001 8.60001 2.60001 13.5 8.40001 16C8.70001 16.2 9.00001 16.5 9.00001 16.9C9.00001 17.3 8.90001 17.6 8.60001 17.8C7.40001 18.6 6.20001 19.2 5.00001 19.5Z" fill="black"/>
</g>
<defs>
<clipPath id="clip0">
<rect width="24" height="24" fill="white"/>
</clipPath>
</defs>
</svg>
