<svg width="30" height="30" viewBox="0 0 30 30" fill="none" xmlns="http://www.w3.org/2000/svg">
<path d="M15 0C6.71694 0 0 6.71694 0 15C0 23.2831 6.71694 30 15 30C23.2831 30 30 23.2831 30 15C30 6.71694 23.2831 0 15 0ZM19.4548 9.29234H17.819C16.5661 9.29234 16.3225 9.88399 16.3225 10.7889V12.7378H19.3503L18.9675 15.8005H16.3225V23.5963H13.1903V15.7657H10.58V12.703H13.1903V10.4408C13.1903 7.83063 14.7912 6.40371 17.123 6.40371C17.9234 6.40371 18.6891 6.43852 19.4896 6.50812V9.29234H19.4548Z" fill="#202730"/>
</svg>
