<svg width="30" height="30" viewBox="0 0 30 30" fill="none" xmlns="http://www.w3.org/2000/svg">
<path d="M15.0698 12.4535C13.7442 12.3837 12.5582 13.4651 12.4884 14.8605C12.4187 16.2209 13.5001 17.3721 14.9303 17.4419C16.2559 17.5116 17.407 16.4302 17.5117 15.0349C17.5814 13.7093 16.5001 12.5232 15.0698 12.4535Z" fill="#202730"/>
<path d="M21.0349 11.3023C20.8604 9.90697 19.9883 8.96511 18.6279 8.89534C16.3604 8.79069 14.0581 8.75581 11.7907 8.86046C9.94183 8.93023 9.06974 9.76744 8.96509 11.5814C8.86043 13.8139 8.86043 16.0814 8.96509 18.3139C9.06974 20.093 9.90694 20.8953 11.6162 21C13.8837 21.1046 16.1511 21.1046 18.3837 21C20.1279 20.9302 20.8953 20.093 21.0697 18.3488C21.1744 17.2326 21.1046 16.0814 21.1046 14.9651C21.1395 14.9651 21.1395 14.9651 21.1744 14.9651C21.1744 14.3721 21.1744 13.7442 21.1744 13.1512C21.1046 12.5233 21.1046 11.9302 21.0349 11.3023ZM15.0697 18.8372C12.9069 18.8372 11.1279 17.1279 11.1279 15C11.1279 12.8721 12.8372 11.1279 14.9651 11.093C17.1279 11.0581 18.8721 12.8023 18.8721 14.9302C18.8721 17.0232 17.1628 18.8023 15.0697 18.8372ZM19.0116 11.8605C18.4883 11.8605 18.1046 11.4419 18.1046 10.9186C18.1046 10.4302 18.5232 10.0116 19.0116 10.0465C19.5 10.0465 19.9186 10.4651 19.9186 10.9535C19.9186 11.4419 19.5 11.8605 19.0116 11.8605Z" fill="#202730"/>
<path d="M15 0C6.73256 0 0 6.73256 0 15C0 23.2674 6.73256 30 15 30C23.2674 30 30 23.2674 30 15C30 6.73256 23.3023 0 15 0ZM22.4302 18.2442C22.3605 20.7209 20.7558 22.2907 18.2791 22.3953C17.1977 22.4302 16.0814 22.3953 15 22.3953C15 22.4302 15 22.4651 15 22.5C13.7093 22.4302 12.4186 22.4651 11.1279 22.2907C9 22.0116 7.60465 20.4767 7.53488 18.3488C7.46512 16.0814 7.46512 13.7791 7.53488 11.5116C7.60465 9.2093 9.24419 7.56977 11.5465 7.5C13.814 7.43023 16.0814 7.43023 18.3488 7.5C20.686 7.56977 22.3256 9.24419 22.3953 11.5814C22.5 13.814 22.5 16.0465 22.4302 18.2442Z" fill="#202730"/>
</svg>
