<svg width="30" height="30" viewBox="0 0 30 30" fill="none" xmlns="http://www.w3.org/2000/svg">
<path d="M15 0C6.71694 0 0 6.71694 0 15C0 23.2831 6.71694 30 15 30C23.2831 30 30 23.2831 30 15C30 6.71694 23.2831 0 15 0ZM11.0673 22.2042C10.0928 22.2042 9.18794 22.2042 8.21346 22.2042C8.21346 19.0371 8.21346 15.8353 8.21346 12.5986C9.15313 12.5986 10.0928 12.5986 11.0673 12.5986C11.0673 15.7657 11.0673 18.9327 11.0673 22.2042ZM9.60557 11.5545C8.66589 11.5197 7.69142 10.5104 7.76102 9.60557C7.79582 8.7007 8.7703 7.79582 9.67517 7.79582C10.6148 7.83063 11.5893 8.83991 11.5197 9.74478C11.4849 10.6497 10.5104 11.5893 9.60557 11.5545ZM22.2042 22.1694C21.1949 22.1694 20.2552 22.1694 19.2111 22.1694C19.2111 20.3596 19.2459 18.5847 19.2111 16.8445C19.1763 15.4176 18.3759 14.652 17.1926 14.9652C16.1833 15.2436 15.9049 16.0441 15.9049 16.949C15.8701 18.3759 15.8701 19.768 15.8701 21.1949C15.8701 21.5081 15.8701 21.8213 15.8701 22.2042C14.8608 22.2042 13.9559 22.2042 12.9814 22.2042C12.9814 19.0371 12.9814 15.8701 12.9814 12.6334C13.8515 12.6334 14.7216 12.6334 15.6613 12.6334C15.6961 13.0162 15.6961 13.3991 15.7309 13.9559C16.5313 12.8422 17.5406 12.355 18.7239 12.355C20.8817 12.355 22.0302 13.4687 22.1694 15.8353C22.2738 17.645 22.2042 19.4548 22.2042 21.2645C22.2042 21.5429 22.2042 21.8213 22.2042 22.1694Z" fill="#202730"/>
</svg>
