<svg width="30" height="30" viewBox="0 0 30 30" fill="none" xmlns="http://www.w3.org/2000/svg">
<path d="M15 0C6.71694 0 0 6.71694 0 15C0 23.2831 6.71694 30 15 30C23.2831 30 30 23.2831 30 15C30 6.71694 23.2831 0 15 0ZM22.8306 20.6729H7.23898C7.23898 20.6729 6.68213 20.6729 6.54292 20.0812V10.9977L14.1995 16.9838C14.1995 16.9838 15.2436 17.8538 16.3225 16.9838L23.5267 11.2761L23.5615 20.0464C23.4919 20.0464 23.3527 20.6381 22.8306 20.6729ZM23.4223 10.1276C23.3179 10.3016 23.1439 10.406 23.0046 10.5452C22.7958 10.6845 22.587 10.8585 22.3782 10.9977C22.1694 11.1369 21.9954 11.2761 21.7865 11.4501C21.7169 11.5197 21.6473 11.5545 21.5777 11.6241C21.5429 11.6589 21.5081 11.6937 21.4733 11.6937C21.4385 11.6937 21.4037 11.7633 21.3689 11.7633C20.0812 12.7726 18.7935 13.7819 17.5058 14.7564C16.8097 15.3132 16.2529 15.8353 15.5568 16.3921C15.2784 16.6357 14.826 16.3921 14.826 16.3921C14.5128 16.1485 14.1995 15.9049 13.9211 15.6613C12.703 14.7216 11.5197 13.7819 10.3016 12.8074C9.70998 12.3202 9.08353 11.8678 8.49188 11.3805C8.24826 11.2065 8.00464 10.9977 7.79582 10.8237C7.5522 10.6149 7.27378 10.4408 7.03016 10.232C6.92575 10.1276 6.85615 10.0232 6.82135 9.88399C6.78654 9.74478 6.85615 9.57077 6.96056 9.46636C7.06497 9.36195 7.20418 9.36195 7.34339 9.32715C7.4478 9.32715 7.5522 9.32715 7.65661 9.32715C7.96984 9.32715 8.24826 9.32715 8.56149 9.32715C9.77958 9.32715 10.9629 9.32715 12.181 9.32715C13.7123 9.32715 15.2436 9.32715 16.7749 9.32715C18.1323 9.32715 19.4896 9.32715 20.8817 9.32715C21.3341 9.32715 21.8213 9.32715 22.2738 9.32715C22.6218 9.32715 23.2135 9.22274 23.4223 9.53596C23.4919 9.70998 23.5267 9.9536 23.4223 10.1276Z" fill="#202730"/>
</svg>
