<svg width="30" height="30" viewBox="0 0 30 30" fill="none" xmlns="http://www.w3.org/2000/svg">
<path d="M15 0C6.71694 0 0 6.71694 0 15C0 23.2831 6.71694 30 15 30C23.2831 30 30 23.2831 30 15C30 6.71694 23.2831 0 15 0ZM22.5522 12.1462C22.5522 12.2854 22.5522 12.4594 22.5522 12.5986C22.5522 17.3666 18.9327 22.9002 12.2506 22.9002C10.1972 22.9002 8.31787 22.3086 6.71694 21.2645C6.99536 21.2993 7.27378 21.3341 7.58701 21.3341C9.29235 21.3341 10.8585 20.7425 12.0766 19.8028C10.5104 19.768 9.15313 18.7239 8.7007 17.297C8.90951 17.3318 9.15313 17.3666 9.39675 17.3666C9.70998 17.3666 10.058 17.3318 10.3364 17.2274C8.66589 16.8794 7.44779 15.4524 7.44779 13.6775V13.6427C7.93503 13.9211 8.49188 14.0603 9.08353 14.0951C8.10905 13.4339 7.4826 12.355 7.4826 11.1021C7.4826 10.4408 7.65661 9.81439 7.96984 9.29234C9.74478 11.4849 12.4246 12.9118 15.4176 13.0858C15.348 12.8074 15.3132 12.529 15.3132 12.2506C15.3132 10.2668 16.949 8.63109 18.9327 8.63109C19.9768 8.63109 20.9165 9.04872 21.5777 9.77958C22.413 9.60557 23.1787 9.32715 23.8747 8.90951C23.5963 9.74478 23.0394 10.4756 22.2738 10.9281C23.0046 10.8237 23.7007 10.6497 24.3619 10.3712C23.8747 10.9977 23.2483 11.6589 22.5522 12.1462Z" fill="#202730"/>
</svg>
