<svg width="16" height="18" viewBox="0 0 16 18" fill="none" xmlns="http://www.w3.org/2000/svg">
<path d="M7.71786 18.0833C8.73325 18.0833 9.56402 17.2526 9.56402 16.2372H5.87171C5.87171 17.2526 6.70248 18.0833 7.71786 18.0833ZM13.2563 12.5449V7.9295C13.2563 5.09565 11.7517 2.72334 9.10248 2.09565V1.46796C9.10248 0.701805 8.48402 0.0833435 7.71786 0.0833435C6.95171 0.0833435 6.33325 0.701805 6.33325 1.46796V2.09565C3.69325 2.72334 2.17941 5.08642 2.17941 7.9295V12.5449L0.333252 14.391V15.3141H15.1025V14.391L13.2563 12.5449ZM11.4102 13.468H4.02556V7.9295C4.02556 5.64027 5.4194 3.77565 7.71786 3.77565C10.0163 3.77565 11.4102 5.64027 11.4102 7.9295V13.468Z" fill="#EDEEED"/>
</svg>
