<svg width="13" height="13" viewBox="0 0 13 13" fill="none" xmlns="http://www.w3.org/2000/svg">
<path fill-rule="evenodd" clip-rule="evenodd" d="M6.49996 1.62502C3.80757 1.62502 1.62496 3.80763 1.62496 6.50002C1.62496 9.19241 3.80757 11.375 6.49996 11.375C9.19235 11.375 11.375 9.19241 11.375 6.50002C11.375 3.80763 9.19235 1.62502 6.49996 1.62502ZM0.541626 6.50002C0.541626 3.20932 3.20926 0.541687 6.49996 0.541687C9.79066 0.541687 12.4583 3.20932 12.4583 6.50002C12.4583 9.79072 9.79066 12.4584 6.49996 12.4584C3.20926 12.4584 0.541626 9.79072 0.541626 6.50002Z" fill="#393E45"/>
<path d="M6.88297 3.95034C6.67144 3.7388 6.32848 3.7388 6.11694 3.95034C5.90541 4.16187 5.90541 4.50484 6.11694 4.71637L7.35893 5.95835H4.33329C4.03414 5.95835 3.79163 6.20087 3.79163 6.50002C3.79163 6.79917 4.03414 7.04169 4.33329 7.04169H7.35893L6.11694 8.28367C5.90541 8.4952 5.90541 8.83817 6.11694 9.0497C6.32848 9.26124 6.67144 9.26124 6.88297 9.0497L9.04964 6.88304C9.26118 6.6715 9.26118 6.32854 9.04964 6.117L6.88297 3.95034Z" fill="#393E45"/>
</svg>
