<svg width="23" height="24" viewBox="0 0 23 24" fill="none" xmlns="http://www.w3.org/2000/svg">
<path fill-rule="evenodd" clip-rule="evenodd" d="M12.0019 2.18217C10.2657 2.18217 8.60056 2.87189 7.37285 4.0996C6.14514 5.32731 5.45542 6.99244 5.45542 8.72868V14.1841C5.45542 14.9568 5.25049 15.7085 4.87073 16.3663H19.1331C18.7534 15.7085 18.5484 14.9568 18.5484 14.1841V8.72868C18.5484 6.99244 17.8587 5.32731 16.631 4.0996C15.4033 2.87189 13.7382 2.18217 12.0019 2.18217ZM22.9128 16.3663C22.334 16.3663 21.779 16.1364 21.3698 15.7271C20.9605 15.3179 20.7306 14.7629 20.7306 14.1841V8.72868C20.7306 6.41369 19.811 4.19352 18.174 2.55657C16.5371 0.919626 14.3169 0 12.0019 0C9.68694 0 7.46677 0.919626 5.82983 2.55657C4.19288 4.19352 3.27325 6.41369 3.27325 8.72868V14.1841C3.27325 14.7628 3.04335 15.3179 2.63411 15.7271C2.22488 16.1364 1.66983 16.3663 1.09108 16.3663C0.488495 16.3663 0 16.8548 0 17.4574C0 18.0599 0.488495 18.5484 1.09108 18.5484H22.9128V16.3663ZM9.56688 20.8779C10.0881 20.5755 10.7558 20.753 11.0581 21.2742C11.1541 21.4396 11.2917 21.5768 11.4574 21.6722C11.623 21.7676 11.8108 21.8178 12.0019 21.8178C12.1931 21.8178 12.3809 21.7676 12.5465 21.6722C12.7121 21.5768 12.8498 21.4396 12.9457 21.2742C13.2481 20.753 13.9157 20.5755 14.437 20.8779C14.9582 21.1803 15.1357 21.8479 14.8333 22.3692C14.5456 22.8652 14.1326 23.2769 13.6357 23.5631C13.1387 23.8494 12.5754 24 12.0019 24C11.4285 24 10.8651 23.8494 10.3682 23.5631C9.8713 23.2769 9.4583 22.8652 9.17057 22.3692C8.86821 21.8479 9.04564 21.1803 9.56688 20.8779Z" fill="#EDEEED"/>
</svg>
