<svg width="26" height="28" viewBox="0 0 26 28" fill="none" xmlns="http://www.w3.org/2000/svg">
<path fill-rule="evenodd" clip-rule="evenodd" d="M3.81818 5.09091C3.11527 5.09091 2.54545 5.66073 2.54545 6.36364V24.1818C2.54545 24.8847 3.11527 25.4545 3.81818 25.4545H21.6364C22.3393 25.4545 22.9091 24.8847 22.9091 24.1818V6.36364C22.9091 5.66073 22.3393 5.09091 21.6364 5.09091H3.81818ZM0 6.36364C0 4.25491 1.70946 2.54545 3.81818 2.54545H21.6364C23.7451 2.54545 25.4545 4.25491 25.4545 6.36364V24.1818C25.4545 26.2905 23.7451 28 21.6364 28H3.81818C1.70946 28 0 26.2905 0 24.1818V6.36364Z" fill="#202730"/>
<path fill-rule="evenodd" clip-rule="evenodd" d="M17.8182 0C18.5211 0 19.0909 0.569819 19.0909 1.27273V6.36364C19.0909 7.06654 18.5211 7.63636 17.8182 7.63636C17.1153 7.63636 16.5455 7.06654 16.5455 6.36364V1.27273C16.5455 0.569819 17.1153 0 17.8182 0Z" fill="#202730"/>
<path fill-rule="evenodd" clip-rule="evenodd" d="M7.63636 0C8.33927 0 8.90909 0.569819 8.90909 1.27273V6.36364C8.90909 7.06654 8.33927 7.63636 7.63636 7.63636C6.93346 7.63636 6.36364 7.06654 6.36364 6.36364V1.27273C6.36364 0.569819 6.93346 0 7.63636 0Z" fill="#202730"/>
<path fill-rule="evenodd" clip-rule="evenodd" d="M0 11.4545C0 10.7516 0.569819 10.1818 1.27273 10.1818H24.1818C24.8847 10.1818 25.4545 10.7516 25.4545 11.4545C25.4545 12.1575 24.8847 12.7273 24.1818 12.7273H1.27273C0.569819 12.7273 0 12.1575 0 11.4545Z" fill="#202730"/>
</svg>
