<svg width="6" height="6" viewBox="0 0 6 6" fill="none" xmlns="http://www.w3.org/2000/svg">
<path fill-rule="evenodd" clip-rule="evenodd" d="M3.72829 0.623769C3.92549 0.542057 4.13686 0.5 4.35032 0.5C4.56378 0.5 4.77516 0.542057 4.97236 0.623769C5.16953 0.705465 5.34867 0.825201 5.49956 0.976138C5.65049 1.12703 5.77031 1.30625 5.85201 1.50342C5.93372 1.70062 5.97578 1.91199 5.97578 2.12546C5.97578 2.33892 5.93372 2.55029 5.85201 2.74749C5.77031 2.94468 5.65056 3.12384 5.4996 3.27473L3.2896 5.48473C3.19197 5.58236 3.03368 5.58236 2.93605 5.48473L0.726046 3.27473C0.421239 2.96993 0.25 2.55652 0.25 2.12546C0.25 1.69439 0.421239 1.28099 0.726046 0.97618C1.03085 0.671373 1.44426 0.500134 1.87532 0.500134C2.30639 0.500134 2.71979 0.671373 3.0246 0.97618L3.11282 1.0644L3.201 0.976221C3.3519 0.825265 3.5311 0.705473 3.72829 0.623769Z" fill="#B20A0A"/>
</svg>
