<svg width="19" height="19" viewBox="0 0 19 19" fill="none" xmlns="http://www.w3.org/2000/svg">
<path d="M8.85 15.15H10.65V13.35H8.85V15.15ZM9.75 0.75C4.782 0.75 0.75 4.782 0.75 9.75C0.75 14.718 4.782 18.75 9.75 18.75C14.718 18.75 18.75 14.718 18.75 9.75C18.75 4.782 14.718 0.75 9.75 0.75ZM9.75 16.95C5.781 16.95 2.55 13.719 2.55 9.75C2.55 5.781 5.781 2.55 9.75 2.55C13.719 2.55 16.95 5.781 16.95 9.75C16.95 13.719 13.719 16.95 9.75 16.95ZM9.75 4.35C7.761 4.35 6.15 5.961 6.15 7.95H7.95C7.95 6.96 8.76 6.15 9.75 6.15C10.74 6.15 11.55 6.96 11.55 7.95C11.55 9.75 8.85 9.525 8.85 12.45H10.65C10.65 10.425 13.35 10.2 13.35 7.95C13.35 5.961 11.739 4.35 9.75 4.35Z" fill="#EDEEED"/>
</svg>
