<svg width="16" height="12" viewBox="0 0 16 12" fill="none" xmlns="http://www.w3.org/2000/svg">
<path fill-rule="evenodd" clip-rule="evenodd" d="M2.66663 1.33333C2.30148 1.33333 1.99996 1.63486 1.99996 2V10C1.99996 10.3651 2.30148 10.6667 2.66663 10.6667H13.3333C13.6984 10.6667 14 10.3651 14 10V2C14 1.63486 13.6984 1.33333 13.3333 1.33333H2.66663ZM0.666626 2C0.666626 0.898477 1.5651 0 2.66663 0H13.3333C14.4348 0 15.3333 0.898477 15.3333 2V10C15.3333 11.1015 14.4348 12 13.3333 12H2.66663C1.5651 12 0.666626 11.1015 0.666626 10V2Z" fill="#353535"/>
<path fill-rule="evenodd" clip-rule="evenodd" d="M0.787195 1.61767C0.998338 1.31603 1.41403 1.24268 1.71566 1.45382L8.00002 5.85287L14.2844 1.45382C14.586 1.24268 15.0017 1.31603 15.2128 1.61767C15.424 1.9193 15.3506 2.33499 15.049 2.54613L8.38232 7.2128C8.15278 7.37348 7.84725 7.37348 7.61771 7.2128L0.951042 2.54613C0.649409 2.33499 0.576052 1.9193 0.787195 1.61767Z" fill="#353535"/>
</svg>
