<svg width="114" height="136" viewBox="0 0 114 136" fill="none" xmlns="http://www.w3.org/2000/svg">
<path fill-rule="evenodd" clip-rule="evenodd" d="M1.35036 83.8478V127.022C-0.24963 133.022 4.01703 134.522 6.35036 134.522H113.35V1.02168C79.6837 1.18835 11.1504 1.42168 6.35036 1.02168C1.55036 0.621684 1.01703 5.85502 1.35036 8.52168V50.1522C8.15789 52.7194 13 59.2942 13 67C13 74.7058 8.15789 81.2806 1.35036 83.8478Z" fill="#C4C4C4"/>
<path d="M1.35036 83.8478L1.17393 83.38L0.85036 83.502V83.8478H1.35036ZM1.35036 127.022L1.83348 127.151L1.85036 127.087V127.022H1.35036ZM113.35 134.522V135.022H113.85V134.522H113.35ZM113.35 1.02168H113.85V0.519202L113.348 0.52169L113.35 1.02168ZM6.35036 1.02168L6.30884 1.51996L6.30884 1.51996L6.35036 1.02168ZM1.35036 8.52168H1.85036V8.49055L1.8465 8.45967L1.35036 8.52168ZM1.35036 50.1522H0.85036V50.498L1.17393 50.62L1.35036 50.1522ZM0.85036 83.8478V127.022H1.85036V83.8478H0.85036ZM0.867242 126.893C0.0327383 130.022 0.708222 132.1 2.02701 133.38C3.30891 134.625 5.10297 135.022 6.35036 135.022V134.022C5.26442 134.022 3.75849 133.668 2.72372 132.663C1.72584 131.694 1.06799 130.021 1.83348 127.151L0.867242 126.893ZM6.35036 135.022H113.35V134.022H6.35036V135.022ZM113.85 134.522V1.02168H112.85V134.522H113.85ZM113.348 0.52169C96.5149 0.605021 70.9655 0.705019 49.0247 0.734184C27.0619 0.763379 8.76404 0.721091 6.39188 0.523411L6.30884 1.51996C8.73668 1.72228 27.1054 1.76332 49.026 1.73418C70.9685 1.70502 96.5191 1.60501 113.353 1.52168L113.348 0.52169ZM6.39188 0.523411C5.09608 0.415427 4.0475 0.686424 3.22142 1.23276C2.40072 1.77554 1.84024 2.56301 1.46679 3.42241C0.72643 5.12612 0.681335 7.20062 0.854221 8.5837L1.8465 8.45967C1.68605 7.17608 1.74096 5.30058 2.38393 3.82096C2.70214 3.08869 3.15416 2.47616 3.77305 2.06685C4.38655 1.66111 5.20464 1.42794 6.30884 1.51996L6.39188 0.523411ZM0.85036 8.52168V50.1522H1.85036V8.52168H0.85036ZM1.17393 50.62C7.79316 53.1162 12.5 59.5091 12.5 67H13.5C13.5 59.0794 8.52263 52.3226 1.52679 49.6844L1.17393 50.62ZM12.5 67C12.5 74.4909 7.79316 80.8838 1.17393 83.38L1.52679 84.3156C8.52263 81.6774 13.5 74.9206 13.5 67H12.5Z" fill="black"/>
</svg>
