<svg width="22" height="22" viewBox="0 0 22 22" fill="none" xmlns="http://www.w3.org/2000/svg">
<path fill-rule="evenodd" clip-rule="evenodd" d="M11 2C6.02944 2 2 6.02944 2 11C2 15.9706 6.02944 20 11 20C15.9706 20 20 15.9706 20 11C20 6.02944 15.9706 2 11 2ZM0 11C0 4.92487 4.92487 0 11 0C17.0751 0 22 4.92487 22 11C22 17.0751 17.0751 22 11 22C4.92487 22 0 17.0751 0 11Z" fill="black"/>
<path fill-rule="evenodd" clip-rule="evenodd" d="M10.9583 5C11.1645 5 11.3528 5.11704 11.4441 5.30191L12.9919 8.43767L16.4534 8.94361C16.6573 8.97343 16.8267 9.11643 16.8903 9.31252C16.9539 9.5086 16.9006 9.72378 16.753 9.86761L14.2487 12.3067L14.8397 15.7526C14.8746 15.9558 14.791 16.1612 14.6242 16.2824C14.4574 16.4036 14.2362 16.4196 14.0537 16.3236L10.9583 14.6958L7.86297 16.3236C7.68047 16.4196 7.45931 16.4036 7.29249 16.2824C7.12567 16.1612 7.04212 15.9558 7.07698 15.7526L7.66798 12.3067L5.16374 9.86761C5.01608 9.72378 4.96284 9.5086 5.02642 9.31252C5.09 9.11643 5.25937 8.97343 5.46334 8.94361L8.92479 8.43767L10.4726 5.30191C10.5639 5.11704 10.7522 5 10.9583 5ZM10.9583 6.76543L9.77032 9.17225C9.69148 9.33196 9.53917 9.44271 9.36294 9.46847L6.70541 9.85691L8.62795 11.7295C8.75572 11.8539 8.81404 12.0333 8.78389 12.2091L8.33028 14.8538L10.7062 13.6043C10.8641 13.5213 11.0526 13.5213 11.2105 13.6043L13.5864 14.8538L13.1328 12.2091C13.1027 12.0333 13.161 11.8539 13.2887 11.7295L15.2113 9.85691L12.5538 9.46847C12.3775 9.44271 12.2252 9.33196 12.1464 9.17225L10.9583 6.76543Z" fill="black" stroke="black" stroke-width="0.5" stroke-linecap="round" stroke-linejoin="round"/>
</svg>
