<svg width="24" height="24" viewBox="0 0 24 24" fill="none" xmlns="http://www.w3.org/2000/svg">
<path fill-rule="evenodd" clip-rule="evenodd" d="M4.36365 1.09091C4.36365 0.488417 4.85206 0 5.45456 0H18.5455C19.148 0 19.6364 0.488417 19.6364 1.09091V8.72727C19.6364 9.32977 19.148 9.81818 18.5455 9.81818C17.943 9.81818 17.4546 9.32977 17.4546 8.72727V2.18182H6.54547V8.72727C6.54547 9.32977 6.05705 9.81818 5.45456 9.81818C4.85206 9.81818 4.36365 9.32977 4.36365 8.72727V1.09091Z" fill="#202730"/>
<path fill-rule="evenodd" clip-rule="evenodd" d="M3.27273 9.81818C2.9834 9.81818 2.70592 9.93312 2.50134 10.1377C2.29675 10.3423 2.18182 10.6198 2.18182 10.9091V16.3636C2.18182 16.653 2.29675 16.9304 2.50134 17.135C2.70592 17.3396 2.9834 17.4545 3.27273 17.4545H5.45455C6.05704 17.4545 6.54545 17.943 6.54545 18.5455C6.54545 19.1479 6.05704 19.6364 5.45455 19.6364H3.27273C2.40475 19.6364 1.57231 19.2916 0.95856 18.6778C0.344804 18.064 0 17.2316 0 16.3636V10.9091C0 10.0411 0.344804 9.20868 0.95856 8.59492C1.57231 7.98117 2.40475 7.63636 3.27273 7.63636H20.7273C21.5953 7.63636 22.4277 7.98117 23.0414 8.59492C23.6552 9.20868 24 10.0411 24 10.9091V16.3636C24 17.2316 23.6552 18.064 23.0414 18.6778C22.4277 19.2916 21.5953 19.6364 20.7273 19.6364H18.5455C17.943 19.6364 17.4545 19.1479 17.4545 18.5455C17.4545 17.943 17.943 17.4545 18.5455 17.4545H20.7273C21.0166 17.4545 21.2941 17.3396 21.4987 17.135C21.7032 16.9304 21.8182 16.653 21.8182 16.3636V10.9091C21.8182 10.6198 21.7032 10.3423 21.4987 10.1377C21.2941 9.93312 21.0166 9.81818 20.7273 9.81818H3.27273Z" fill="#202730"/>
<path fill-rule="evenodd" clip-rule="evenodd" d="M4.36365 14.1818C4.36365 13.5793 4.85206 13.0909 5.45456 13.0909H18.5455C19.148 13.0909 19.6364 13.5793 19.6364 14.1818V22.9091C19.6364 23.5116 19.148 24 18.5455 24H5.45456C4.85206 24 4.36365 23.5116 4.36365 22.9091V14.1818ZM6.54547 15.2727V21.8182H17.4546V15.2727H6.54547Z" fill="#202730"/>
</svg>
