<svg width="22" height="24" viewBox="0 0 22 24" fill="none" xmlns="http://www.w3.org/2000/svg">
<path fill-rule="evenodd" clip-rule="evenodd" d="M17.4545 2.18182C16.2496 2.18182 15.2727 3.15865 15.2727 4.36364C15.2727 5.56862 16.2496 6.54545 17.4545 6.54545C18.6595 6.54545 19.6364 5.56862 19.6364 4.36364C19.6364 3.15865 18.6595 2.18182 17.4545 2.18182ZM13.0909 4.36364C13.0909 1.95367 15.0446 0 17.4545 0C19.8645 0 21.8182 1.95367 21.8182 4.36364C21.8182 6.77361 19.8645 8.72727 17.4545 8.72727C15.0446 8.72727 13.0909 6.77361 13.0909 4.36364Z" fill="#202730"/>
<path fill-rule="evenodd" clip-rule="evenodd" d="M4.36364 9.81818C3.15865 9.81818 2.18182 10.795 2.18182 12C2.18182 13.205 3.15865 14.1818 4.36364 14.1818C5.56862 14.1818 6.54545 13.205 6.54545 12C6.54545 10.795 5.56862 9.81818 4.36364 9.81818ZM0 12C0 9.59003 1.95367 7.63636 4.36364 7.63636C6.77361 7.63636 8.72727 9.59003 8.72727 12C8.72727 14.41 6.77361 16.3636 4.36364 16.3636C1.95367 16.3636 0 14.41 0 12Z" fill="#202730"/>
<path fill-rule="evenodd" clip-rule="evenodd" d="M17.4545 17.4545C16.2496 17.4545 15.2727 18.4314 15.2727 19.6364C15.2727 20.8413 16.2496 21.8182 17.4545 21.8182C18.6595 21.8182 19.6364 20.8413 19.6364 19.6364C19.6364 18.4314 18.6595 17.4545 17.4545 17.4545ZM13.0909 19.6364C13.0909 17.2264 15.0446 15.2727 17.4545 15.2727C19.8645 15.2727 21.8182 17.2264 21.8182 19.6364C21.8182 22.0463 19.8645 24 17.4545 24C15.0446 24 13.0909 22.0463 13.0909 19.6364Z" fill="#202730"/>
<path fill-rule="evenodd" clip-rule="evenodd" d="M6.24654 13.098C6.54988 12.5775 7.21778 12.4014 7.73834 12.7047L15.1892 17.0465C15.7098 17.3499 15.8859 18.0178 15.5826 18.5383C15.2792 19.0589 14.6113 19.235 14.0908 18.9316L6.63984 14.5898C6.11928 14.2865 5.9432 13.6186 6.24654 13.098Z" fill="#202730"/>
<path fill-rule="evenodd" clip-rule="evenodd" d="M15.5713 5.46106C15.875 5.98143 15.6993 6.64944 15.1789 6.95311L7.73894 11.2949C7.21858 11.5986 6.55056 11.4229 6.24689 10.9026C5.94321 10.3822 6.11888 9.7142 6.63924 9.41052L14.0792 5.06871C14.5996 4.76503 15.2676 4.9407 15.5713 5.46106Z" fill="#202730"/>
</svg>
